# xmcd
# 
# Track frame offsets:
#     150
#     15067
#     37155
#     55205
#     102260
#     115252
#     152507
#     168277
# 
# Disc length: 2534
# 
# Revision: 20
# Processed by: cddbd v1.5.2PL0 Copyright (c) Steve Scherf et al.
# Submitted via: fre:ac v1.0.31
# 
DISCID=5509e408
DTITLE=Stevie Ray Vaughan - Live At Montreux 1982 and 1985 Disc 1
DYEAR=1985
DGENRE=Blues
TTITLE0=Hide Away
TTITLE1=Rude Mood
TTITLE2=Pride and Joy
TTITLE3=Texas Flood
TTITLE4=Love Struck Baby
TTITLE5=Dirty Pool
TTITLE6=Give Me Back My Wig
TTITLE7=Collins Shuffle
EXTD=YEAR: 1985
EXTT0=
EXTT1=
EXTT2=
EXTT3=
EXTT4=
EXTT5=
EXTT6=
EXTT7=
PLAYORDER=
